<?xml version="1.0" standalone="no"?>
<!DOCTYPE svg PUBLIC "-//W3C//DTD SVG 20010904//EN"
 "http://www.w3.org/TR/2001/REC-SVG-20010904/DTD/svg10.dtd">
<svg version="1.0" xmlns="http://www.w3.org/2000/svg"
 width="216.000000pt" height="216.000000pt" viewBox="0 0 216.000000 216.000000"
 preserveAspectRatio="xMidYMid meet">
<metadata>
Created by potrace 1.11, written by Peter Selinger 2001-2013
</metadata>
<g transform="translate(0.000000,216.000000) scale(0.100000,-0.100000)"
fill="#000000" stroke="none">
<path d="M2020 1095 l0 -565 70 0 70 0 0 565 0 565 -70 0 -70 0 0 -565z"/>
<path d="M1006 1351 c-2 -3 -4 -189 -4 -413 l1 -408 71 0 71 0 0 413 0 412
-68 1 c-37 1 -69 -1 -71 -5z"/>
<path d="M1662 945 l-1 -415 75 0 75 0 -3 413 -3 412 -71 2 -71 2 -1 -414z"/>
<path d="M690 1203 c-1 -38 -2 -629 -1 -650 1 -22 5 -23 71 -23 l70 0 0 345 0
345 -70 0 c-60 0 -70 -3 -70 -17z"/>
<path d="M1329 1193 c0 -16 -2 -171 -2 -345 l-2 -318 73 0 72 0 0 345 0 345
-70 0 c-69 0 -70 0 -71 -27z"/>
<path d="M380 950 c-6 -3 -9 -94 -9 -213 l0 -207 72 0 72 0 0 210 c0 134 -3
210 -10 211 -33 5 -117 4 -125 -1z"/>
<path d="M2 675 l0 -145 73 0 74 0 0 145 1 145 -74 0 -74 0 0 -145z"/>
</g>
</svg>
